<?xml version="1.0" encoding="utf-8"?>
<!-- Generator: Adobe Illustrator 16.0.2, SVG Export Plug-In . SVG Version: 6.00 Build 0)  -->
<!DOCTYPE svg PUBLIC "-//W3C//DTD SVG 1.1//EN" "http://www.w3.org/Graphics/SVG/1.1/DTD/svg11.dtd">
<svg version="1.1" id="Layer_1" xmlns="http://www.w3.org/2000/svg" xmlns:xlink="http://www.w3.org/1999/xlink" x="0px" y="0px"
	 width="90px" height="90px" viewBox="0 0 90 90" enable-background="new 0 0 90 90" xml:space="preserve">
<g>
	<path fill="#FFFFFF" d="M90,45.028c0,12.387-4.401,22.979-13.196,31.776C68.005,85.601,57.414,90,45.029,90
		C32.641,90,22.065,85.601,13.3,76.804C4.533,68.007,0.15,57.415,0.15,45.028c0-12.322,4.398-22.899,13.196-31.729
		C22.144,4.471,32.704,0.056,45.028,0.056c12.386,0,22.977,4.399,31.775,13.196C85.599,22.051,90,32.642,90,45.028z M30.831,18.063
		l13.244,29.251L31.117,75.803l28.489-28.68L30.831,18.063z"/>
</g>
</svg>
