<?xml version="1.0" encoding="utf-8"?>
<!-- Generator: Adobe Illustrator 16.0.2, SVG Export Plug-In . SVG Version: 6.00 Build 0)  -->
<!DOCTYPE svg PUBLIC "-//W3C//DTD SVG 1.1//EN" "http://www.w3.org/Graphics/SVG/1.1/DTD/svg11.dtd">
<svg version="1.1" id="Layer_1" xmlns="http://www.w3.org/2000/svg" xmlns:xlink="http://www.w3.org/1999/xlink" x="0px" y="0px"
	 width="180.333px" height="12.175px" viewBox="0 0 180.333 12.175" enable-background="new 0 0 180.333 12.175"
	 xml:space="preserve">
<g>
	<g>
		<g>
			<path fill="#FFFFFF" d="M6.438,0.28c1.266,0,1.986,0.211,2.566,0.615C9.601,1.317,9.917,1.95,9.917,2.828
				c0,1.547-1.458,2.303-2.302,2.514v0.035c1.599,0.228,3.041,1.177,3.041,2.953c0,1.247-0.615,2.126-1.634,2.706
				C8.125,11.528,7,11.704,5.665,11.704H1.622V11.3c1.477-0.105,1.617-0.229,1.617-2.144V2.828C3.222,0.912,3.116,0.79,1.728,0.684
				V0.28H6.438L6.438,0.28z M4.715,5.254h1.107c1.688,0,2.531-0.791,2.531-2.232c0-1.054-0.439-2.231-2.514-2.231
				c-0.58,0-0.826,0.052-0.966,0.105C4.768,0.93,4.715,1.001,4.715,1.352L4.715,5.254L4.715,5.254z M4.715,5.764v3.831
				c0,1.178,0.229,1.582,1.511,1.564c1.476,0,2.724-0.738,2.724-2.601c0-1.916-1.406-2.794-3.216-2.794H4.715z"/>
			<path fill="#FFFFFF" d="M15.912,9.156c0,1.916,0.141,2.039,1.582,2.144v0.404h-4.675V11.3c1.476-0.105,1.616-0.229,1.616-2.144
				V2.828c0-1.916-0.141-2.039-1.546-2.144V0.28h4.464c1.125,0,2.126,0.158,2.777,0.598c0.703,0.439,1.16,1.23,1.16,2.25
				c0,1.459-0.896,2.496-2.319,3.076c0.316,0.527,1.037,1.74,1.564,2.514c0.633,0.932,1.002,1.406,1.476,1.933
				c0.369,0.439,0.686,0.721,1.318,0.879l-0.035,0.333h-0.246c-2.021-0.052-2.637-0.667-3.305-1.634
				c-0.544-0.791-1.283-2.091-1.775-2.918c-0.282-0.457-0.563-0.632-1.107-0.632h-0.95L15.912,9.156L15.912,9.156z M15.912,6.167
				h1.02c0.721,0,1.283-0.088,1.758-0.475c0.755-0.597,1.019-1.458,1.019-2.32c0-1.846-1.336-2.583-2.654-2.583
				c-0.598,0-0.843,0.035-0.984,0.088C15.964,0.912,15.912,1,15.912,1.352V6.167z"/>
			<path fill="#FFFFFF" d="M35.761,5.834c0,3.655-2.548,6.133-5.905,6.133c-3.322,0-5.677-2.531-5.677-5.852
				c0-2.953,2.074-6.099,5.993-6.099C33.213,0.017,35.761,2.372,35.761,5.834z M29.715,0.596c-2.073,0-3.832,1.705-3.832,5.009
				c0,3.393,1.775,5.782,4.341,5.782c2.109,0,3.831-1.634,3.831-4.903C34.056,2.688,32.229,0.596,29.715,0.596z"/>
			<path fill="#FFFFFF" d="M41.638,0.684l-0.544,0.07c-0.791,0.105-0.897,0.264-0.65,1.037l2.372,7.487h0.036l2.812-8.823h0.422
				l3.181,8.806h0.035c0.721-2.215,1.741-5.923,2.039-7.188c0.246-1.02,0.159-1.23-0.632-1.318l-0.51-0.07V0.28h3.726v0.404
				c-1.16,0.141-1.283,0.211-1.863,1.811c-0.159,0.439-1.441,4.481-2.918,9.315h-0.475l-3.163-8.594L45.47,3.25l-2.865,8.56h-0.492
				l-3.041-9.438c-0.475-1.459-0.738-1.582-1.74-1.688V0.28h4.306L41.638,0.684L41.638,0.684z"/>
			<path fill="#FFFFFF" d="M65.817,11.827H65.36l-7.627-9.262h-0.035v4.482c0,1.846,0.07,2.794,0.141,3.339
				c0.087,0.615,0.562,0.861,1.722,0.914v0.404h-4.218V11.3c0.966-0.035,1.424-0.299,1.511-0.914
				c0.07-0.545,0.141-1.494,0.141-3.339V3.232c0-1.265-0.018-1.546-0.334-1.95c-0.333-0.422-0.808-0.545-1.546-0.598V0.28h2.566
				l7.399,8.858h0.035V4.938c0-1.846-0.07-2.794-0.141-3.339c-0.088-0.615-0.563-0.861-1.723-0.914V0.28h4.219v0.404
				c-0.967,0.035-1.424,0.299-1.512,0.914c-0.071,0.545-0.141,1.494-0.141,3.339V11.827L65.817,11.827z"/>
		</g>
	</g>
</g>
<g>
	<path fill="#FFFFFF" d="M84.688,0.908c-1.027,0.068-1.421,0.308-1.507,1.01c-0.051,0.463-0.085,1.199-0.085,2.775v1.421
		c0,2.021-0.308,3.477-1.302,4.522c-0.788,0.822-1.936,1.182-3.066,1.182c-0.994,0-1.987-0.239-2.741-0.822
		c-1.027-0.788-1.507-2.072-1.507-4.076V2.638c0-1.542-0.137-1.61-1.49-1.73v-0.48h4.437v0.48c-1.354,0.085-1.49,0.188-1.49,1.73
		v3.905c0,2.757,1.096,4.333,3.22,4.333c2.466,0,3.237-2.056,3.237-4.882V4.693c0-1.576-0.051-2.295-0.12-2.826
		c-0.103-0.668-0.462-0.874-1.662-0.959V0.428h4.076V0.908L84.688,0.908z"/>
	<path fill="#FFFFFF" d="M98.412,0.908c-0.959,0.051-1.37,0.274-1.438,1.027c-0.068,0.514-0.103,1.285-0.103,2.878v6.903H96.34
		L89.043,2.74h-0.034V7.04c0,1.576,0.051,2.398,0.103,2.895c0.086,0.874,0.48,1.079,1.645,1.147v0.48h-4.06v-0.48
		c0.994-0.051,1.422-0.274,1.508-1.113c0.051-0.531,0.103-1.353,0.103-2.929V3.271c0-1.251-0.034-1.319-0.343-1.73
		c-0.343-0.428-0.719-0.565-1.524-0.634v-0.48h2.535l7.143,8.599h0.052V4.813c0-1.576-0.069-2.364-0.12-2.844
		c-0.086-0.771-0.497-0.993-1.679-1.062v-0.48h4.042V0.908L98.412,0.908z"/>
	<path fill="#FFFFFF" d="M100.334,11.561v-0.479c1.404-0.103,1.542-0.206,1.542-1.662V2.569c0-1.456-0.138-1.559-1.542-1.661v-0.48
		h4.539v0.48c-1.404,0.103-1.542,0.206-1.542,1.661V9.42c0,1.473,0.138,1.559,1.542,1.661v0.48L100.334,11.561L100.334,11.561z"/>
	<path fill="#FFFFFF" d="M118.178,0.908c-1.165,0.137-1.387,0.291-2.038,1.833c-0.462,1.113-2.278,5.464-3.563,8.992h-0.531
		c-1.147-3.134-2.552-6.817-3.546-9.3c-0.496-1.285-0.771-1.422-1.781-1.507V0.428h4.197v0.48c-1.217,0.137-1.285,0.257-1.011,1.01
		c0.445,1.216,1.695,4.522,2.843,7.468h0.034c0.856-2.141,2.158-5.481,2.706-7.194c0.325-0.977,0.223-1.113-1.164-1.285v-0.48h3.854
		V0.908L118.178,0.908z"/>
	<path fill="#FFFFFF" d="M128.693,8.855c-0.104,0.565-0.446,2.175-0.601,2.706h-8.256v-0.479c1.559-0.12,1.696-0.257,1.696-1.645
		V2.62c0-1.542-0.138-1.593-1.474-1.712v-0.48h7.64c0,0.428,0.086,1.593,0.137,2.467L127.34,2.98
		c-0.154-0.719-0.325-1.096-0.548-1.473c-0.24-0.36-0.703-0.479-1.937-0.479h-1.302c-0.53,0-0.565,0.034-0.565,0.548v3.888h1.611
		c1.541,0,1.627-0.137,1.849-1.285h0.497v3.289h-0.497c-0.222-1.233-0.342-1.336-1.832-1.336h-1.628v3.237
		c0,0.805,0.104,1.165,0.412,1.388c0.325,0.206,0.925,0.223,1.78,0.223c1.302,0,1.782-0.137,2.158-0.583
		c0.292-0.342,0.617-0.925,0.84-1.61L128.693,8.855z"/>
	<path fill="#FFFFFF" d="M140.442,11.698c-0.206,0-0.394,0-0.6-0.017c-1.284-0.069-2.004-0.446-2.774-1.559
		c-0.6-0.839-1.217-1.901-1.729-2.74c-0.292-0.48-0.583-0.685-1.474-0.685h-0.549V9.42c0,1.456,0.154,1.559,1.525,1.662v0.479
		h-4.505v-0.479c1.404-0.103,1.559-0.206,1.559-1.662V2.534c0-1.456-0.138-1.507-1.474-1.627V0.428h4.248
		c1.25,0,2.09,0.154,2.74,0.583c0.686,0.445,1.131,1.216,1.131,2.244c0,1.473-0.908,2.381-2.176,2.929
		c0.292,0.565,1.011,1.713,1.524,2.484c0.616,0.89,0.977,1.335,1.388,1.781c0.463,0.514,0.856,0.702,1.233,0.804L140.442,11.698z
		 M134.14,6.131c0.873,0,1.438-0.137,1.867-0.479c0.668-0.514,0.941-1.199,0.941-2.124c0-1.85-1.216-2.535-2.518-2.535
		c-0.497,0-0.788,0.068-0.925,0.171c-0.12,0.085-0.188,0.291-0.188,0.753v4.214H134.14z"/>
	<path fill="#FFFFFF" d="M147.754,3.031c-0.309-1.096-0.753-2.278-2.243-2.278c-1.319,0-1.901,0.959-1.901,1.885
		c0,1.25,0.822,1.833,2.175,2.535c1.337,0.685,2.964,1.49,2.964,3.409c0,1.799-1.524,3.237-3.803,3.237
		c-0.702,0-1.251-0.137-1.679-0.257c-0.428-0.154-0.686-0.274-0.839-0.36c-0.138-0.359-0.359-1.832-0.463-2.654l0.496-0.12
		c0.274,1.045,1.046,2.774,2.81,2.774c1.284,0,2.056-0.805,2.056-2.055c0-1.268-0.942-1.867-2.227-2.552
		c-1.097-0.582-2.826-1.439-2.826-3.375c0-1.644,1.318-3.049,3.527-3.049c0.789,0,1.508,0.188,2.159,0.394
		c0.068,0.617,0.153,1.285,0.291,2.364L147.754,3.031z"/>
	<path fill="#FFFFFF" d="M150.348,11.561v-0.479c1.404-0.103,1.541-0.206,1.541-1.662V2.569c0-1.456-0.137-1.559-1.541-1.661v-0.48
		h4.539v0.48c-1.405,0.103-1.542,0.206-1.542,1.661V9.42c0,1.473,0.137,1.559,1.542,1.661v0.48L150.348,11.561L150.348,11.561z"/>
	<path fill="#FFFFFF" d="M165.897,3.083c-0.188-0.822-0.342-1.25-0.548-1.524c-0.273-0.411-0.564-0.531-1.85-0.531h-1.216v8.427
		c0,1.353,0.137,1.525,1.764,1.627v0.479h-4.915v-0.479c1.559-0.103,1.695-0.274,1.695-1.627V1.027h-1.062
		c-1.422,0-1.765,0.137-1.987,0.531c-0.205,0.291-0.343,0.771-0.548,1.524h-0.497c0.086-1.028,0.172-2.141,0.206-3.083h0.342
		c0.24,0.394,0.463,0.428,0.942,0.428h6.766c0.463,0,0.6-0.103,0.874-0.428h0.359c0,0.788,0.086,2.038,0.172,3.032L165.897,3.083z"
		/>
	<path fill="#FFFFFF" d="M178.424,0.908c-1.182,0.137-1.37,0.308-2.039,1.353c-0.771,1.25-1.353,2.244-2.175,3.751
		c-0.223,0.445-0.274,0.633-0.274,1.079v2.33c0,1.438,0.138,1.559,1.713,1.661v0.48h-4.847v-0.48
		c1.524-0.103,1.678-0.206,1.678-1.661V7.143c0-0.343-0.068-0.497-0.359-1.011c-0.6-1.062-1.216-2.175-2.158-3.768
		c-0.685-1.165-0.873-1.354-1.901-1.456V0.428h4.094v0.48c-1.216,0.154-1.182,0.359-0.856,0.925c0.72,1.37,1.559,2.775,2.296,4.06
		c0.634-1.13,1.559-2.809,2.038-3.854c0.395-0.856,0.343-0.993-0.993-1.13v-0.48h3.785V0.908L178.424,0.908z"/>
</g>
</svg>
